# xmcd
# Track frame offsets:
# 150
# 11826
# 25212
# 36681
# 53783
# 65728
# 75397
# 88587
# 100255
# 116675
# 130889
# 146011
# 159789
# 172631
#
# Disc length: 2498 seconds
# Revision: 0
# Processed by: cddbd v1.4PL0 Copyright (c) Steve Scherf et al.
# Submitted via: VisiTrax 2.9.5.180 - For more info visit www.synapsa.com
#
DISCID=b309c00e
DTITLE=Peter Kent - 14 Træffere gennem tiden
DYEAR=1900
DGENRE=
TTITLE0=Hej du kære
TTITLE1=Far sang bass
TTITLE2=Hallo lille du
TTITLE3=Stormen
TTITLE4=Et andet land
TTITLE5=Nothing to it
TTITLE6=En tur i byen
TTITLE7=Fængsels blues
TTITLE8=Kvinden i mit liv
TTITLE9=En bedre verden
TTITLE10=Girls, woman and ladies
TTITLE11=Tro, håb og kærlighed
TTITLE12=Mit svære savn
TTITLE13=Are you still mine
EXTD=
EXTT0=
EXTT1=
EXTT2=
EXTT3=
EXTT4=
EXTT5=
EXTT6=
EXTT7=
EXTT8=
EXTT9=
EXTT10=
EXTT11=
EXTT12=
EXTT13=
PLAYORDER=
